<svg xmlns="http://www.w3.org/2000/svg" viewBox="0 0 1400 900" width="1400" height="900" role="img" aria-labelledby="title desc">
  <title id="title">nickb.net System Architecture</title>
  <desc id="desc">Portfolio runtime, AI assistant, content sources, and deployment boundaries.</desc>
  <style>
    text { font-family: 'Helvetica Neue', Helvetica, Arial, sans-serif; fill: #111827; }
    .title { font-size: 22px; font-weight: 700; }
    .subtitle { font-size: 13px; fill: #6b7280; }
    .label { font-size: 14px; font-weight: 700; }
    .small { font-size: 12px; fill: #6b7280; }
    .tiny { font-size: 11px; fill: #6b7280; }
    .lane-label { font-size: 11px; font-weight: 700; fill: #374151; letter-spacing: 1px; }
  </style>
  <defs>
    <marker id="arrow-blue" markerWidth="10" markerHeight="7" refX="9" refY="3.5" orient="auto">
      <polygon points="0 0, 10 3.5, 0 7" fill="#2563eb"/>
    </marker>
    <marker id="arrow-green" markerWidth="10" markerHeight="7" refX="9" refY="3.5" orient="auto">
      <polygon points="0 0, 10 3.5, 0 7" fill="#059669"/>
    </marker>
    <marker id="arrow-purple" markerWidth="10" markerHeight="7" refX="9" refY="3.5" orient="auto">
      <polygon points="0 0, 10 3.5, 0 7" fill="#7c3aed"/>
    </marker>
    <marker id="arrow-orange" markerWidth="10" markerHeight="7" refX="9" refY="3.5" orient="auto">
      <polygon points="0 0, 10 3.5, 0 7" fill="#ea580c"/>
    </marker>
    <marker id="arrow-gray" markerWidth="10" markerHeight="7" refX="9" refY="3.5" orient="auto">
      <polygon points="0 0, 10 3.5, 0 7" fill="#6b7280"/>
    </marker>
  </defs>
  <rect width="1400" height="900" fill="#ffffff"/>
  <text x="40" y="38" class="title">nickb.net System Architecture</text>
  <text x="40" y="60" class="subtitle">Portfolio runtime, AI assistant, content sources, and deployment boundaries.</text>
  <rect x="50" y="82" width="1300" height="150" rx="10" fill="#f9fafb" fill-opacity="0.55" stroke="#cbd5e1" stroke-width="1.2" stroke-dasharray="7,5"/>
  <text x="66" y="104" class="lane-label">VISITOR EXPERIENCE</text>
  <rect x="50" y="270" width="1300" height="180" rx="10" fill="#eff6ff" fill-opacity="0.55" stroke="#bfdbfe" stroke-width="1.2" stroke-dasharray="7,5"/>
  <text x="66" y="292" class="lane-label">NEXT.JS AND CLOUDFLARE RUNTIME</text>
  <rect x="50" y="492" width="1300" height="205" rx="10" fill="#f0fdf4" fill-opacity="0.55" stroke="#bbf7d0" stroke-width="1.2" stroke-dasharray="7,5"/>
  <text x="66" y="514" class="lane-label">AI, DATA, AND OPERATIONS</text>
  <rect x="90" y="130" width="170" height="74" rx="10" fill="#ffffff" stroke="#d1d5db" stroke-width="1.6"/>
  <rect x="100" y="142" width="34" height="34" rx="9" fill="#eff6ff" stroke="#bfdbfe" stroke-width="1.2"/>
  <text x="117" y="164" text-anchor="middle" font-size="11" font-weight="700" fill="#1d4ed8">UI</text>
  <text x="144" y="160" text-anchor="start" class="label">Visitor</text>
  <text x="144" y="180" text-anchor="start" class="small">Browser session</text>
  <rect x="350" y="130" width="200" height="74" rx="10" fill="#ffffff" stroke="#d1d5db" stroke-width="1.6"/>
  <rect x="360" y="142" width="34" height="34" rx="9" fill="#f0fdfa" stroke="#99f6e4" stroke-width="1.2"/>
  <text x="377" y="164" text-anchor="middle" font-size="11" font-weight="700" fill="#0f766e">APP</text>
  <text x="404" y="160" text-anchor="start" class="label">Portfolio UI</text>
  <text x="404" y="180" text-anchor="start" class="small">Hero, work, projects</text>
  <rect x="630" y="130" width="220" height="74" rx="10" fill="#ffffff" stroke="#d1d5db" stroke-width="1.6"/>
  <rect x="640" y="142" width="34" height="34" rx="9" fill="#fff7ed" stroke="#fed7aa" stroke-width="1.2"/>
  <text x="657" y="164" text-anchor="middle" font-size="11" font-weight="700" fill="#c2410c">CHAT</text>
  <text x="684" y="160" text-anchor="start" class="label">AI Chat UI</text>
  <text x="684" y="180" text-anchor="start" class="small">Popup + stream state</text>
  <rect x="960" y="130" width="240" height="74" rx="10" fill="#ffffff" stroke="#d1d5db" stroke-width="1.6"/>
  <rect x="970" y="142" width="34" height="34" rx="9" fill="#faf5ff" stroke="#ddd6fe" stroke-width="1.2"/>
  <text x="987" y="164" text-anchor="middle" font-size="11" font-weight="700" fill="#6d28d9">MDX</text>
  <text x="1014" y="160" text-anchor="start" class="label">Content Surfaces</text>
  <text x="1014" y="180" text-anchor="start" class="small">Use cases, MDX-ready blog</text>
  <rect x="100" y="332" width="215" height="78" rx="10" fill="#ffffff" stroke="#93c5fd" stroke-width="1.6"/>
  <rect x="110" y="344" width="34" height="34" rx="9" fill="#eff6ff" stroke="#bfdbfe" stroke-width="1.2"/>
  <text x="127" y="366" text-anchor="middle" font-size="11" font-weight="700" fill="#1d4ed8">CF</text>
  <text x="154" y="362" text-anchor="start" class="label">Cloudflare Worker</text>
  <text x="154" y="382" text-anchor="start" class="small">OpenNext entrypoint</text>
  <rect x="410" y="332" width="220" height="78" rx="10" fill="#ffffff" stroke="#93c5fd" stroke-width="1.6"/>
  <rect x="420" y="344" width="34" height="34" rx="9" fill="#eff6ff" stroke="#bfdbfe" stroke-width="1.2"/>
  <text x="437" y="366" text-anchor="middle" font-size="11" font-weight="700" fill="#1d4ed8">NX</text>
  <text x="464" y="362" text-anchor="start" class="label">Next App Router</text>
  <text x="464" y="382" text-anchor="start" class="small">Pages, layouts, API routes</text>
  <polygon points="800,305 857.2,338.0 857.2,404.0 800,437 742.8,404.0 742.8,338.0" fill="#fff7ed" stroke="#fed7aa" stroke-width="1.6"/>
  <text x="800" y="369" text-anchor="middle" class="label">/api/chat</text>
  <text x="800" y="387" text-anchor="middle" class="small">RAG endpoint</text>
  <rect x="1060" y="332" width="220" height="78" rx="10" fill="#ffffff" stroke="#93c5fd" stroke-width="1.6"/>
  <rect x="1070" y="344" width="34" height="34" rx="9" fill="#f9fafb" stroke="#d1d5db" stroke-width="1.2"/>
  <text x="1087" y="366" text-anchor="middle" font-size="11" font-weight="700" fill="#374151">AS</text>
  <text x="1114" y="362" text-anchor="start" class="label">Static Assets</text>
  <text x="1114" y="382" text-anchor="start" class="small">.open-next/assets</text>
  <path d="M 90,558 L 277,558 L 295,576 L 295,646 L 90,646 Z" fill="#ffffff" stroke="#d1d5db" stroke-width="1.6"/>
  <path d="M 277,558 L 277,576 L 295,576" fill="#e5e7eb" stroke="#d1d5db" stroke-width="1.1"/>
  <text x="192.5" y="592" text-anchor="middle" class="label">Seed Facts</text>
  <text x="192.5" y="612" text-anchor="middle" class="small">public facts</text>
  <text x="192.5" y="628" text-anchor="middle" class="small">nick-info.md optional</text>
  <rect x="380" y="565" width="190" height="76" rx="10" fill="#ffffff" stroke="#86efac" stroke-width="1.6"/>
  <rect x="390" y="577" width="34" height="34" rx="9" fill="#f0fdf4" stroke="#bbf7d0" stroke-width="1.2"/>
  <text x="407" y="599" text-anchor="middle" font-size="11" font-weight="700" fill="#047857">JOB</text>
  <text x="434" y="595" text-anchor="start" class="label">Seed Script</text>
  <text x="434" y="615" text-anchor="start" class="small">Chunk + metadata</text>
  <rect x="660" y="565" width="195" height="76" rx="10" fill="#ffffff" stroke="#c4b5fd" stroke-width="1.6"/>
  <rect x="670" y="577" width="34" height="34" rx="9" fill="#faf5ff" stroke="#ddd6fe" stroke-width="1.2"/>
  <text x="687" y="599" text-anchor="middle" font-size="11" font-weight="700" fill="#6d28d9">AI</text>
  <text x="714" y="595" text-anchor="start" class="label">Google Gemini</text>
  <text x="714" y="615" text-anchor="start" class="small">Embeddings + generation</text>
  <ellipse cx="1090" cy="552" rx="115.0" ry="32.857142857142854" fill="#ecfdf5" stroke="#86efac" stroke-width="1.6"/>
  <rect x="975.0" y="552" width="230" height="100" fill="#ecfdf5" stroke="none"/>
  <line x1="975.0" y1="552" x2="975.0" y2="652" stroke="#86efac" stroke-width="1.6"/>
  <line x1="1205.0" y1="552" x2="1205.0" y2="652" stroke="#86efac" stroke-width="1.6"/>
  <ellipse cx="1090" cy="590.0" rx="115.0" ry="32.857142857142854" fill="none" stroke="#86efac" stroke-width="0.8" opacity="0.55"/>
  <ellipse cx="1090" cy="624.0" rx="115.0" ry="32.857142857142854" fill="none" stroke="#86efac" stroke-width="0.8" opacity="0.55"/>
  <ellipse cx="1090" cy="652" rx="115.0" ry="32.857142857142854" fill="#ecfdf5" stroke="#86efac" stroke-width="1.6"/>
  <text x="1090" y="586" text-anchor="middle" class="label">Supabase</text>
  <text x="1090" y="606" text-anchor="middle" class="small">Postgres + pgvector</text>
  <path d="M 260,167 L 350,167" fill="none" stroke="#2563eb" stroke-width="2" stroke-linecap="round" stroke-linejoin="round" marker-end="url(#arrow-blue)"/>
  <rect x="275.0" y="140" width="60" height="20" rx="4" fill="#ffffff" opacity="0.96"/>
  <text x="305" y="154" text-anchor="middle" class="tiny">browse</text>
  <path d="M 550,167 L 630,167" fill="none" stroke="#2563eb" stroke-width="2" stroke-linecap="round" stroke-linejoin="round" marker-end="url(#arrow-blue)"/>
  <rect x="560.0" y="140" width="60" height="20" rx="4" fill="#ffffff" opacity="0.96"/>
  <text x="590" y="154" text-anchor="middle" class="tiny">ask AI</text>
  <path d="M 550,204 L 550,220 L 960,220 L 960,204" fill="none" stroke="#6b7280" stroke-width="2" stroke-linecap="round" stroke-linejoin="round" marker-end="url(#arrow-gray)" stroke-dasharray="6,4"/>
  <rect x="702.5" y="203" width="105" height="20" rx="4" fill="#ffffff" opacity="0.96"/>
  <text x="755" y="217" text-anchor="middle" class="tiny">content links</text>
  <path d="M 175,204 L 175,332" fill="none" stroke="#2563eb" stroke-width="2" stroke-linecap="round" stroke-linejoin="round" marker-end="url(#arrow-blue)"/>
  <rect x="162.5" y="255" width="63" height="20" rx="4" fill="#ffffff" opacity="0.96"/>
  <text x="194" y="269" text-anchor="middle" class="tiny">request</text>
  <path d="M 315,371 L 410,371" fill="none" stroke="#2563eb" stroke-width="2" stroke-linecap="round" stroke-linejoin="round" marker-end="url(#arrow-blue)"/>
  <rect x="332.0" y="344" width="60" height="20" rx="4" fill="#ffffff" opacity="0.96"/>
  <text x="362" y="358" text-anchor="middle" class="tiny">render</text>
  <path d="M 630,371 L 734,371" fill="none" stroke="#ea580c" stroke-width="2" stroke-linecap="round" stroke-linejoin="round" marker-end="url(#arrow-orange)"/>
  <rect x="633.0" y="344" width="98" height="20" rx="4" fill="#ffffff" opacity="0.96"/>
  <text x="682" y="358" text-anchor="middle" class="tiny">POST message</text>
  <path d="M 866,371 L 1060,371" fill="none" stroke="#6b7280" stroke-width="2" stroke-linecap="round" stroke-linejoin="round" marker-end="url(#arrow-gray)" stroke-dasharray="6,4"/>
  <rect x="910.5" y="344" width="105" height="20" rx="4" fill="#ffffff" opacity="0.96"/>
  <text x="963" y="358" text-anchor="middle" class="tiny">asset fetches</text>
  <path d="M 740,204 L 740,302 L 780,302 L 780,316" fill="none" stroke="#ea580c" stroke-width="2" stroke-linecap="round" stroke-linejoin="round" marker-end="url(#arrow-orange)"/>
  <rect x="736.0" y="245" width="60" height="20" rx="4" fill="#ffffff" opacity="0.96"/>
  <text x="766" y="259" text-anchor="middle" class="tiny">send</text>
  <path d="M 820,432 L 820,520 L 758,520 L 758,565" fill="none" stroke="#7c3aed" stroke-width="2" stroke-linecap="round" stroke-linejoin="round" marker-end="url(#arrow-purple)"/>
  <rect x="666.0" y="511" width="126" height="20" rx="4" fill="#ffffff" opacity="0.96"/>
  <text x="729" y="525" text-anchor="middle" class="tiny">embed + generate</text>
  <path d="M 845,425 L 845,520 L 1010,520 L 1010,552" fill="none" stroke="#059669" stroke-width="2" stroke-linecap="round" stroke-linejoin="round" marker-end="url(#arrow-green)"/>
  <rect x="886.0" y="493" width="84" height="20" rx="4" fill="#ffffff" opacity="0.96"/>
  <text x="928" y="507" text-anchor="middle" class="tiny">search RPC</text>
  <path d="M 800,305 L 800,238 L 740,238 L 740,204" fill="none" stroke="#2563eb" stroke-width="2" stroke-linecap="round" stroke-linejoin="round" marker-end="url(#arrow-blue)"/>
  <rect x="804.5" y="239" width="91" height="20" rx="4" fill="#ffffff" opacity="0.96"/>
  <text x="850" y="253" text-anchor="middle" class="tiny">stream text</text>
  <path d="M 295,602 L 380,602" fill="none" stroke="#059669" stroke-width="2" stroke-linecap="round" stroke-linejoin="round" marker-end="url(#arrow-green)" stroke-dasharray="6,4"/>
  <rect x="288.0" y="575" width="98" height="20" rx="4" fill="#ffffff" opacity="0.96"/>
  <text x="337" y="589" text-anchor="middle" class="tiny">public facts</text>
  <path d="M 570,602 L 660,602" fill="none" stroke="#7c3aed" stroke-width="2" stroke-linecap="round" stroke-linejoin="round" marker-end="url(#arrow-purple)"/>
  <rect x="573.0" y="575" width="84" height="20" rx="4" fill="#ffffff" opacity="0.96"/>
  <text x="615" y="589" text-anchor="middle" class="tiny">embeddings</text>
  <path d="M 855,602 L 975,602" fill="none" stroke="#059669" stroke-width="2" stroke-linecap="round" stroke-linejoin="round" marker-end="url(#arrow-green)" stroke-dasharray="6,4"/>
  <rect x="862.5" y="575" width="105" height="20" rx="4" fill="#ffffff" opacity="0.96"/>
  <text x="915" y="589" text-anchor="middle" class="tiny">stored chunks</text>
  <rect x="84" y="735" width="350" height="138" rx="8" fill="#ffffff" stroke="#e5e7eb" stroke-width="1"/>
  <line x1="100" y1="755" x2="134" y2="755" stroke="#2563eb" stroke-width="2" marker-end="url(#arrow-blue)"/>
  <text x="144" y="759" class="small">Request, render, and streamed response</text>
  <line x1="100" y1="779" x2="134" y2="779" stroke="#ea580c" stroke-width="2" marker-end="url(#arrow-orange)"/>
  <text x="144" y="783" class="small">Control or chat trigger flow</text>
  <line x1="100" y1="803" x2="134" y2="803" stroke="#7c3aed" stroke-width="2" marker-end="url(#arrow-purple)"/>
  <text x="144" y="807" class="small">Gemini embedding and generation</text>
  <line x1="100" y1="827" x2="134" y2="827" stroke="#059669" stroke-width="2" marker-end="url(#arrow-green)" stroke-dasharray="6,4"/>
  <text x="144" y="831" class="small">Vector read or knowledge write path</text>
  <line x1="100" y1="851" x2="134" y2="851" stroke="#6b7280" stroke-width="2" marker-end="url(#arrow-gray)" stroke-dasharray="6,4"/>
  <text x="144" y="855" class="small">Static/content reference path</text>
</svg>
